<svg width="24" height="24" viewBox="0 0 24 24" fill="none" xmlns="http://www.w3.org/2000/svg">
<path d="M12 17.275L7.84996 19.775C7.66663 19.8916 7.47496 19.9416 7.27496 19.9249C7.07496 19.9083 6.89996 19.8416 6.74996 19.725C6.59996 19.6083 6.4833 19.4626 6.39996 19.288C6.31663 19.1133 6.29996 18.9173 6.34996 18.7L7.44996 13.975L3.77496 10.8C3.6083 10.65 3.5043 10.479 3.46296 10.287C3.42163 10.095 3.43396 9.90762 3.49996 9.72495C3.56596 9.54228 3.66596 9.39228 3.79996 9.27495C3.93396 9.15762 4.1173 9.08262 4.34996 9.04995L9.19996 8.62495L11.075 4.17495C11.1583 3.97495 11.2876 3.82495 11.463 3.72495C11.6383 3.62495 11.8173 3.57495 12 3.57495C12.1826 3.57495 12.3616 3.62495 12.537 3.72495C12.7123 3.82495 12.8416 3.97495 12.925 4.17495L14.8 8.62495L19.65 9.04995C19.8833 9.08328 20.0666 9.15828 20.2 9.27495C20.3333 9.39162 20.4333 9.54162 20.5 9.72495C20.5666 9.90829 20.5793 10.096 20.538 10.288C20.4966 10.48 20.3923 10.6506 20.225 10.8L16.55 13.975L17.65 18.7C17.7 18.9166 17.6833 19.1126 17.6 19.288C17.5166 19.4633 17.4 19.609 17.25 19.725C17.1 19.841 16.925 19.9076 16.725 19.9249C16.525 19.9423 16.3333 19.8923 16.15 19.775L12 17.275Z" fill="#FBBF24"/>
</svg>
