<svg width="28" height="28" viewBox="0 0 28 28" fill="none" xmlns="http://www.w3.org/2000/svg">
<path d="M10.9673 4.01256C11.1381 4.18308 11.2508 4.40314 11.2893 4.64142C11.3279 4.8797 11.2902 5.12406 11.1818 5.33971C10.3744 6.9451 10.0936 8.76416 10.3794 10.5383C10.6652 12.3124 11.5029 13.9513 12.7736 15.2219C14.0442 16.4926 15.6831 17.3304 17.4573 17.6161C19.2314 17.9019 21.0504 17.6211 22.6558 16.8137C22.8714 16.7051 23.1157 16.6673 23.3539 16.7056C23.5922 16.7439 23.8124 16.8564 23.983 17.027C24.1537 17.1977 24.2662 17.4178 24.3045 17.6561C24.3428 17.8944 24.3049 18.1387 24.1963 18.3542C23.4251 19.8861 22.3014 21.2132 20.9176 22.2263C19.5338 23.2395 17.9293 23.9098 16.236 24.1822C14.5427 24.4546 12.8089 24.3214 11.1771 23.7934C9.54537 23.2653 8.06218 22.3577 6.84944 21.1449C5.6367 19.9322 4.72904 18.449 4.20103 16.8172C3.67303 15.1855 3.53976 13.4517 3.81217 11.7584C4.08458 10.0651 4.7549 8.46061 5.76804 7.07677C6.78119 5.69294 8.10824 4.56925 9.64014 3.79806C9.85593 3.68937 10.1005 3.65158 10.339 3.6901C10.5776 3.72862 10.7978 3.84147 10.9684 4.01256L10.9673 4.01256ZM8.0572 7.88618C6.64554 9.51956 5.90441 11.6267 5.98275 13.7841C6.06109 15.9416 6.95309 17.9894 8.47949 19.5161C10.0059 21.0428 12.0536 21.9352 14.211 22.014C16.3684 22.0927 18.4757 21.352 20.1094 19.9406C18.4793 20.1363 16.8261 19.9592 15.2745 19.4226C13.7229 18.886 12.3134 18.0039 11.1525 16.843C9.9916 15.6821 9.10957 14.2727 8.57296 12.7211C8.03636 11.1695 7.85922 9.51625 8.05491 7.88618L8.0572 7.88618Z" fill="#7CF2A6"/>
</svg>
