<svg width="32" height="32" viewBox="0 0 32 32" fill="none" xmlns="http://www.w3.org/2000/svg">
<path d="M23.4498 12.1872C23.5275 11.8146 23.454 11.4263 23.2456 11.1078C23.0372 10.7892 22.7108 10.5664 22.3382 10.4883L14.8384 8.91912C14.4654 8.84117 14.0767 8.9146 13.7578 9.12327C13.4388 9.33193 13.2159 9.65873 13.1379 10.0318C13.06 10.4048 13.1334 10.7936 13.3421 11.1125C13.5508 11.4314 13.8776 11.6543 14.2506 11.7323L18.3555 12.5907L9.11178 18.6391C8.79298 18.8477 8.5701 19.1744 8.49217 19.5473C8.41424 19.9202 8.48765 20.3088 8.69625 20.6276C8.90485 20.9464 9.23155 21.1693 9.60448 21.2472C9.97741 21.3252 10.366 21.2518 10.6848 21.0432L19.9286 14.9948L19.0709 19.0992C19.0323 19.2839 19.0305 19.4745 19.0655 19.6599C19.1005 19.8453 19.1717 20.022 19.2751 20.1799C19.3784 20.3378 19.5118 20.4738 19.6677 20.5802C19.8236 20.6865 19.9989 20.7611 20.1836 20.7997C20.3683 20.8383 20.5588 20.8402 20.7442 20.8051C20.9296 20.7701 21.1064 20.6989 21.2643 20.5956C21.4222 20.4923 21.5582 20.3589 21.6645 20.203C21.7709 20.0471 21.8455 19.8718 21.8841 19.6871L23.4498 12.1872Z" fill="white"/>
</svg>
