<svg width="26" height="26" viewBox="0 0 26 26" fill="none" xmlns="http://www.w3.org/2000/svg">
<path d="M18.738 9.73841C18.8001 9.44062 18.7414 9.13038 18.5748 8.87585C18.4083 8.62131 18.1475 8.44329 17.8498 8.38088L11.857 7.12697C11.5589 7.06468 11.2482 7.12336 10.9934 7.29009C10.7386 7.45683 10.5604 7.71797 10.4982 8.01606C10.4359 8.31415 10.4945 8.62477 10.6613 8.8796C10.828 9.13442 11.0892 9.31258 11.3872 9.37487L14.6673 10.0608L7.28099 14.8938C7.02624 15.0605 6.84815 15.3216 6.78588 15.6196C6.72361 15.9176 6.78227 16.2281 6.94895 16.4828C7.11564 16.7376 7.37669 16.9157 7.67468 16.9779C7.97268 17.0402 8.2832 16.9816 8.53795 16.8149L15.9243 11.9819L15.239 15.2615C15.2081 15.4091 15.2067 15.5614 15.2347 15.7095C15.2627 15.8577 15.3196 15.9989 15.4021 16.1251C15.4847 16.2513 15.5913 16.3599 15.7158 16.4449C15.8404 16.5299 15.9805 16.5895 16.1281 16.6204C16.2757 16.6512 16.4279 16.6527 16.5761 16.6247C16.7242 16.5967 16.8654 16.5398 16.9916 16.4572C17.1178 16.3747 17.2265 16.2681 17.3115 16.1435C17.3964 16.0189 17.456 15.8789 17.4869 15.7313L18.738 9.73841Z" fill="white"/>
</svg>
